<?xml version="1.0" standalone="no"?>
<!DOCTYPE svg PUBLIC "-//W3C//DTD SVG 20010904//EN"
 "http://www.w3.org/TR/2001/REC-SVG-20010904/DTD/svg10.dtd">
<svg version="1.0" xmlns="http://www.w3.org/2000/svg"
 width="88.000000pt" height="88.000000pt" viewBox="0 0 88.000000 88.000000"
 preserveAspectRatio="xMidYMid meet">
<metadata>
Created by potrace 1.11, written by Peter Selinger 2001-2013
</metadata>
<g transform="translate(0.000000,88.000000) scale(0.100000,-0.100000)"
fill="#000000" stroke="none">
<path d="M394 855 c-21 -32 -11 -73 21 -85 33 -13 71 2 78 32 10 34 9 36 -13
58 -28 28 -66 26 -86 -5z"/>
<path d="M56 794 c-37 -36 -1 -106 50 -96 45 8 62 60 31 100 -13 17 -62 15
-81 -4z"/>
<path d="M740 795 c-36 -44 7 -113 58 -94 31 12 42 26 42 56 0 46 -71 73 -100
38z"/>
<path d="M384 721 c-17 -10 -40 -31 -52 -46 l-21 -26 -29 21 c-44 33 -110 37
-145 10 -106 -83 -80 -309 51 -442 46 -47 76 -60 85 -35 2 6 -22 41 -54 75
-70 77 -93 137 -94 239 0 57 4 77 21 100 30 40 73 42 114 6 30 -27 31 -30 21
-73 -13 -57 -7 -118 13 -138 23 -23 76 -19 98 7 25 32 23 56 -12 130 l-30 64
24 32 c44 57 93 55 136 -5 l21 -29 -31 -57 c-55 -103 -31 -164 62 -156 37 4
52 73 35 163 -6 30 -3 39 17 58 37 35 92 34 119 -2 18 -23 21 -42 21 -105 0
-114 -35 -184 -162 -320 -33 -36 -44 -42 -65 -37 -20 6 -32 0 -56 -24 -18 -18
-28 -37 -25 -46 4 -8 1 -22 -5 -29 -8 -10 -9 -16 -1 -21 5 -3 10 -2 10 3 0 6
7 13 16 16 12 4 15 2 10 -9 -21 -52 -21 -51 -1 -35 10 8 27 14 38 12 27 -5 79
47 73 73 -4 14 9 34 45 70 69 68 134 160 153 218 36 107 23 238 -28 286 -39
37 -102 39 -150 6 l-39 -27 -25 32 c-25 32 -76 60 -109 60 -10 0 -32 -9 -49
-19z m-24 -256 c0 -7 -7 -15 -15 -19 -17 -6 -28 26 -21 59 3 11 5 25 6 30 1
13 30 -53 30 -70z m196 28 c0 -37 -12 -57 -28 -47 -11 7 -10 27 2 58 14 37 26
32 26 -11z"/>
</g>
</svg>
